HIERARCHY
ROOT joint_0
{
	OFFSET 0.000000 0.000000 0.000000
	CHANNELS 6 Xposition Yposition Zposition Zrotation Yrotation Xrotation 
	JOINT joint_1
	{
		OFFSET 6.004005 -1.946999 100.587036
		CHANNELS 3 Zrotation Yrotation Xrotation
		JOINT joint_2
		{
			OFFSET -4.601006 -0.824997 91.925903
			CHANNELS 3 Zrotation Yrotation Xrotation
			JOINT joint_3
			{
				OFFSET -5.420998 -1.130005 91.774048
				CHANNELS 3 Zrotation Yrotation Xrotation
				JOINT joint_4
				{
					OFFSET 4.308998 -3.777992 123.473999
					CHANNELS 3 Zrotation Yrotation Xrotation
					JOINT joint_5
					{
						OFFSET 25.565002 -6.305008 79.437988
						CHANNELS 3 Zrotation Yrotation Xrotation
						End Site
						{
							OFFSET 0.000000 0.000000 0.000000
						}
					}
				}
				JOINT joint_6
				{
					OFFSET -1.750000 -28.655998 68.557983
					CHANNELS 3 Zrotation Yrotation Xrotation
					JOINT joint_7
					{
						OFFSET -17.692001 -116.544006 -17.244019
						CHANNELS 3 Zrotation Yrotation Xrotation
						JOINT joint_8
						{
							OFFSET 27.063004 -23.640991 -266.895020
							CHANNELS 3 Zrotation Yrotation Xrotation
							JOINT joint_9
							{
								OFFSET 40.722000 -15.761017 -232.488953
								CHANNELS 3 Zrotation Yrotation Xrotation
								End Site
								{
									OFFSET 0.000000 0.000000 0.000000
								}
							}
						}
					}
				}
				JOINT joint_10
				{
					OFFSET 6.593002 24.457001 69.892944
					CHANNELS 3 Zrotation Yrotation Xrotation
					JOINT joint_11
					{
						OFFSET 24.311996 114.920002 -19.872925
						CHANNELS 3 Zrotation Yrotation Xrotation
						JOINT joint_12
						{
							OFFSET 21.081001 15.319000 -268.037964
							CHANNELS 3 Zrotation Yrotation Xrotation
							JOINT joint_13
							{
								OFFSET 27.794006 -8.947001 -234.744080
								CHANNELS 3 Zrotation Yrotation Xrotation
								End Site
								{
									OFFSET 0.000000 0.000000 0.000000
								}
							}
						}
					}
				}
			}
		}
	}
	JOINT joint_14
	{
		OFFSET -6.627998 -80.520004 -98.790039
		CHANNELS 3 Zrotation Yrotation Xrotation
		JOINT joint_15
		{
			OFFSET -43.638000 -13.751999 -502.538971
			CHANNELS 3 Zrotation Yrotation Xrotation
			JOINT joint_16
			{
				OFFSET -39.532999 -9.912994 -398.071007
				CHANNELS 3 Zrotation Yrotation Xrotation
				JOINT joint_17
				{
					OFFSET 174.940004 -34.660995 -75.688002
					CHANNELS 3 Zrotation Yrotation Xrotation
					End Site
					{
						OFFSET 0.000000 0.000000 0.000000
					}
				}
			}
		}
	}
	JOINT joint_18
	{
		OFFSET 12.591003 79.842003 -98.765015
		CHANNELS 3 Zrotation Yrotation Xrotation
		JOINT joint_19
		{
			OFFSET -39.080002 -1.297001 -503.101013
			CHANNELS 3 Zrotation Yrotation Xrotation
			JOINT joint_20
			{
				OFFSET -51.570000 -0.514000 -396.815987
				CHANNELS 3 Zrotation Yrotation Xrotation
				JOINT joint_21
				{
					OFFSET 178.987999 -11.521999 -73.244003
					CHANNELS 3 Zrotation Yrotation Xrotation
					End Site
					{
						OFFSET 0.000000 0.000000 0.000000
					}
				}
			}
		}
	}
}
MOTION
Frames: 16
Frame Time: 0.016667
-1300.755981 888.190186 1096.732056 -10.728110 -1.374349 0.110666 0.700845 1.768013 0.212558 0.704141 -0.314273 -0.001630 0.716641 0.358821 0.019261 0.288166 -0.998342 -1.139590 0.000000 0.000000 0.000000 0.014749 0.440680 1.240678 0.277700 0.258114 2.248855 -0.725246 6.237950 -2.206612 0.000000 0.000000 0.000000 3.077760 0.081329 0.387466 -0.159516 0.415055 -3.822730 0.752877 2.587049 6.431331 0.000000 0.000000 0.000000 1.433793 -0.029217 -2.664417 1.211229 -1.420140 -0.033077 0.977279 3.359938 1.085095 0.000000 0.000000 0.000000 -1.588152 -1.480926 4.337193 -1.331276 0.750720 -0.066830 -1.283997 0.613731 -0.485129 0.000000 0.000000 0.000000 
-1300.717407 888.211914 1096.730957 -10.731736 -1.380598 0.108294 0.706258 1.773091 0.222238 0.709164 -0.314260 -0.002157 0.721718 0.358754 0.019550 0.290368 -1.016882 -1.150702 0.000000 0.000000 0.000000 0.022877 0.438296 1.229321 0.277314 0.255544 2.246534 -0.725044 6.234654 -2.205484 0.000000 0.000000 0.000000 3.068569 0.075857 0.400950 -0.159914 0.414123 -3.823462 0.751601 2.582191 6.421543 0.000000 0.000000 0.000000 1.435004 -0.032331 -2.665508 1.211130 -1.395438 -0.028379 0.978819 3.350100 1.083820 0.000000 0.000000 0.000000 -1.586712 -1.476549 4.335818 -1.330135 0.761495 -0.062988 -1.282478 0.609087 -0.484809 0.000000 0.000000 0.000000 
-1300.678101 888.232483 1096.729980 -10.734382 -1.387922 0.105019 0.711404 1.777832 0.232716 0.713818 -0.313848 -0.004369 0.726571 0.358564 0.020651 0.291598 -1.035761 -1.158874 0.000000 0.000000 0.000000 0.031507 0.435566 1.217140 0.277022 0.252481 2.244676 -0.724790 6.231427 -2.203986 0.000000 0.000000 0.000000 3.056107 0.070668 0.415401 -0.160293 0.414357 -3.824707 0.750260 2.577531 6.410920 0.000000 0.000000 0.000000 1.435787 -0.035588 -2.664606 1.210832 -1.366978 -0.025192 0.980301 3.336320 1.081743 0.000000 0.000000 0.000000 -1.585857 -1.470959 4.335233 -1.329545 0.772401 -0.058563 -1.281398 0.602975 -0.484761 0.000000 0.000000 0.000000 
-1300.635620 888.246521 1096.730957 -10.737218 -1.396344 0.101105 0.714365 1.781684 0.242154 0.716384 -0.313670 -0.005652 0.729295 0.358733 0.021845 0.292464 -1.054474 -1.165859 0.000000 0.000000 0.000000 0.048244 0.431982 1.206034 0.276687 0.249996 2.242385 -0.724531 6.229172 -2.202092 0.000000 0.000000 0.000000 3.047767 0.067149 0.429394 -0.160605 0.415422 -3.825735 0.749063 2.574175 6.401255 0.000000 0.000000 0.000000 1.436233 -0.038940 -2.660634 1.210735 -1.334652 -0.025666 0.981920 3.318177 1.078863 0.000000 0.000000 0.000000 -1.585169 -1.463012 4.336092 -1.328935 0.781868 -0.054844 -1.280369 0.596062 -0.484786 0.000000 0.000000 0.000000 
-1300.589478 888.258057 1096.732056 -10.738709 -1.406392 0.096040 0.715552 1.785820 0.254216 0.716872 -0.313956 -0.011132 0.730371 0.358374 0.025731 0.292882 -1.071488 -1.171036 0.000000 0.000000 0.000000 0.070519 0.428308 1.193310 0.276437 0.247803 2.241225 -0.724391 6.227601 -2.200704 0.000000 0.000000 0.000000 3.040031 0.065196 0.443739 -0.160777 0.418264 -3.827771 0.747955 2.570318 6.391682 0.000000 0.000000 0.000000 1.436070 -0.041229 -2.653921 1.210476 -1.299339 -0.028425 0.983414 3.296101 1.075152 0.000000 0.000000 0.000000 -1.585230 -1.452751 4.338431 -1.328920 0.790730 -0.051235 -1.279902 0.587663 -0.485135 0.000000 0.000000 0.000000 
-1300.552246 888.270874 1096.733032 -10.740520 -1.417340 0.091026 0.717410 1.791169 0.263690 0.718328 -0.313541 -0.013191 0.732017 0.357930 0.026796 0.292639 -1.087850 -1.174019 0.000000 0.000000 0.000000 0.090525 0.423618 1.182238 0.276421 0.244425 2.240437 -0.724058 6.226588 -2.197967 0.000000 0.000000 0.000000 3.029283 0.062312 0.457954 -0.161035 0.420441 -3.828791 0.746992 2.569192 6.383583 0.000000 0.000000 0.000000 1.435997 -0.046385 -2.646380 1.210192 -1.256182 -0.032570 0.985262 3.267396 1.070285 0.000000 0.000000 0.000000 -1.584964 -1.442524 4.340534 -1.328624 0.800863 -0.047290 -1.279129 0.578090 -0.485434 0.000000 0.000000 0.000000 
-1300.534424 888.289490 1096.734009 -10.741958 -1.429650 0.086398 0.719845 1.801240 0.271662 0.720411 -0.313981 -0.015883 0.734461 0.359128 0.029420 0.293385 -1.104145 -1.180034 0.000000 0.000000 0.000000 0.108491 0.416921 1.171653 0.276658 0.238698 2.240161 -0.723503 6.224612 -2.194142 0.000000 0.000000 0.000000 3.017611 0.056929 0.467542 -0.161508 0.418640 -3.826924 0.746453 2.573566 6.379750 0.000000 0.000000 0.000000 1.436331 -0.056720 -2.638371 1.209937 -1.199400 -0.038245 0.987856 3.227702 1.063569 0.000000 0.000000 0.000000 -1.584654 -1.432979 4.341733 -1.328400 0.813065 -0.042890 -1.278381 0.567833 -0.485786 0.000000 0.000000 0.000000 
-1300.533081 888.312561 1096.733032 -10.743012 -1.443615 0.082134 0.722438 1.816479 0.277007 0.722955 -0.315955 -0.015110 0.736969 0.361427 0.028193 0.293753 -1.121230 -1.185080 0.000000 0.000000 0.000000 0.125383 0.408076 1.163583 0.277139 0.231007 2.239947 -0.722671 6.222457 -2.188620 0.000000 0.000000 0.000000 3.004653 0.049317 0.477441 -0.162161 0.414710 -3.824304 0.746263 2.581653 6.379184 0.000000 0.000000 0.000000 1.436921 -0.071075 -2.629799 1.209657 -1.130604 -0.045547 0.991066 3.177213 1.054985 0.000000 0.000000 0.000000 -1.584370 -1.423402 4.342129 -1.328294 0.826948 -0.037818 -1.277669 0.556413 -0.486226 0.000000 0.000000 0.000000 
-1300.534668 888.336975 1096.733032 -10.742178 -1.458728 0.077892 0.724365 1.832315 0.281104 0.724875 -0.317925 -0.014634 0.738988 0.363968 0.028884 0.293812 -1.135903 -1.188598 0.000000 0.000000 0.000000 0.144167 0.400318 1.154161 0.277900 0.224040 2.242406 -0.721922 6.221510 -2.183223 0.000000 0.000000 0.000000 2.993630 0.042137 0.485619 -0.162873 0.410434 -3.821372 0.745998 2.589944 6.378351 0.000000 0.000000 0.000000 1.436687 -0.084283 -2.621347 1.208579 -1.061913 -0.052756 0.993388 3.129210 1.046509 0.000000 0.000000 0.000000 -1.584527 -1.414994 4.341560 -1.328842 0.845445 -0.031152 -1.277397 0.542375 -0.487013 0.000000 0.000000 0.000000 
-1300.529419 888.365540 1096.733032 -10.739597 -1.475911 0.072844 0.726410 1.847206 0.287162 0.726785 -0.318121 -0.015489 0.740995 0.364782 0.029086 0.292530 -1.149123 -1.187642 0.000000 0.000000 0.000000 0.164547 0.396321 1.142587 0.279117 0.219786 2.250845 -0.721412 6.222049 -2.178730 0.000000 0.000000 0.000000 2.982621 0.036848 0.495296 -0.163415 0.408727 -3.819987 0.745515 2.594427 6.375498 0.000000 0.000000 0.000000 1.434769 -0.092720 -2.613536 1.205878 -0.999222 -0.057523 0.993802 3.090467 1.039040 0.000000 0.000000 0.000000 -1.585511 -1.406963 4.339498 -1.330630 0.870502 -0.020422 -1.277813 0.524048 -0.488356 0.000000 0.000000 0.000000 
-1300.524902 888.397217 1096.734009 -10.735179 -1.494750 0.067472 0.727858 1.862497 0.292105 0.728194 -0.318124 -0.015581 0.742470 0.365358 0.029709 0.290212 -1.160468 -1.183045 0.000000 0.000000 0.000000 0.187344 0.394159 1.129423 0.280743 0.216798 2.263445 -0.721085 6.224530 -2.174745 0.000000 0.000000 0.000000 2.973432 0.032423 0.504773 -0.163928 0.407664 -3.819262 0.744912 2.597182 6.371721 0.000000 0.000000 0.000000 1.431694 -0.099093 -2.606056 1.202008 -0.937902 -0.061266 0.992899 3.057316 1.032109 0.000000 0.000000 0.000000 -1.587204 -1.399965 4.336096 -1.333475 0.901429 -0.006559 -1.278862 0.501911 -0.490203 0.000000 0.000000 0.000000 
-1300.517578 888.426514 1096.733032 -10.728443 -1.513931 0.062084 0.729633 1.878304 0.297737 0.729930 -0.318469 -0.015242 0.744165 0.366410 0.028733 0.286882 -1.169970 -1.174919 0.000000 0.000000 0.000000 0.209351 0.394283 1.117442 0.282302 0.216092 2.276672 -0.720745 6.227329 -2.170480 0.000000 0.000000 0.000000 2.964183 0.028394 0.515666 -0.164476 0.407584 -3.819845 0.744119 2.598092 6.366642 0.000000 0.000000 0.000000 1.427760 -0.100015 -2.598545 1.197793 -0.887016 -0.065224 0.991067 3.030346 1.025999 0.000000 0.000000 0.000000 -1.589480 -1.394184 4.332743 -1.336924 0.935515 0.007189 -1.280535 0.479021 -0.492353 0.000000 0.000000 0.000000 
-1300.505859 888.445007 1096.729004 -10.716695 -1.533451 0.057344 0.731140 1.895970 0.302529 0.731427 -0.320297 -0.015389 0.745797 0.368943 0.029363 0.283241 -1.176271 -1.165095 0.000000 0.000000 0.000000 0.229937 0.396823 1.106301 0.283641 0.217941 2.288718 -0.720395 6.231729 -2.165502 0.000000 0.000000 0.000000 2.955730 0.024728 0.526184 -0.165107 0.407770 -3.821104 0.743051 2.597073 6.359853 0.000000 0.000000 0.000000 1.422488 -0.090407 -2.590591 1.193388 -0.856247 -0.070985 0.987907 3.012699 1.021154 0.000000 0.000000 0.000000 -1.593430 -1.390328 4.330327 -1.341852 0.973548 0.018627 -1.283963 0.456018 -0.495225 0.000000 0.000000 0.000000 
-1300.489136 888.455688 1096.723022 -10.701158 -1.553738 0.052968 0.733178 1.914562 0.307165 0.733444 -0.322321 -0.016378 0.748011 0.371362 0.030053 0.278142 -1.177256 -1.149556 0.000000 0.000000 0.000000 0.248678 0.402391 1.096644 0.284890 0.222765 2.301005 -0.720062 6.237702 -2.160069 0.000000 0.000000 0.000000 2.945708 0.021602 0.538228 -0.165765 0.409380 -3.823757 0.741764 2.593978 6.351561 0.000000 0.000000 0.000000 1.415906 -0.071885 -2.582222 1.188624 -0.841658 -0.078156 0.983437 3.003708 1.017456 0.000000 0.000000 0.000000 -1.598490 -1.388028 4.328204 -1.347842 1.016409 0.029020 -1.288589 0.431676 -0.498671 0.000000 0.000000 0.000000 
-1300.475952 888.469971 1096.715942 -10.688467 -1.571153 0.048508 0.736196 1.932185 0.314282 0.736287 -0.324897 -0.017723 0.751121 0.374624 0.031209 0.273609 -1.177768 -1.135664 0.000000 0.000000 0.000000 0.265806 0.408206 1.088246 0.285646 0.228530 2.308929 -0.719622 6.243677 -2.153988 0.000000 0.000000 0.000000 2.938039 0.019167 0.547734 -0.166444 0.410644 -3.826002 0.740405 2.590719 6.342944 0.000000 0.000000 0.000000 1.410705 -0.055545 -2.574670 1.185060 -0.830591 -0.084155 0.980030 2.997150 1.014694 0.000000 0.000000 0.000000 -1.602540 -1.386337 4.327171 -1.352600 1.053534 0.037279 -1.292303 0.411451 -0.501480 0.000000 0.000000 0.000000 
-1300.473999 888.497986 1096.708008 -10.685604 -1.583339 0.043989 0.740618 1.948959 0.327401 0.740054 -0.329018 -0.022050 0.755505 0.378570 0.034515 0.270671 -1.177182 -1.126447 0.000000 0.000000 0.000000 0.288103 0.413077 1.080675 0.285449 0.235540 2.309188 -0.719051 6.248367 -2.147405 0.000000 0.000000 0.000000 2.939124 0.017805 0.551070 -0.167220 0.409815 -3.826742 0.739018 2.588690 6.334551 0.000000 0.000000 0.000000 1.409233 -0.049232 -2.569595 1.184164 -0.814938 -0.086800 0.979656 2.990021 1.013125 0.000000 0.000000 0.000000 -1.603687 -1.383723 4.327207 -1.354173 1.076724 0.042854 -1.293254 0.399496 -0.502633 0.000000 0.000000 0.000000 
